<svg xmlns="http://www.w3.org/2000/svg" width="21" height="20" viewBox="0 0 21 20" fill="none">
    <path fillRule="evenodd" clipRule="evenodd" d="M10.4585 4.2085C10.8037 4.2085 11.0835 4.48832 11.0835 4.8335V10.6668C11.0835 11.012 10.8037 11.2918 10.4585 11.2918C10.1133 11.2918 9.8335 11.012 9.8335 10.6668V4.8335C9.8335 4.48832 10.1133 4.2085 10.4585 4.2085Z" fill="#304254"/>
    <path fillRule="evenodd" clipRule="evenodd" d="M13.7412 8.31561C13.9811 8.56375 13.9744 8.9595 13.7262 9.19933L11.2292 11.6133C11.0027 11.8368 10.7058 11.9167 10.4585 11.9167C10.2094 11.9167 9.91033 11.8357 9.68324 11.6086L7.26655 9.19192C7.02248 8.94783 7.02248 8.55217 7.26655 8.30806C7.51063 8.06398 7.90636 8.06398 8.15044 8.30806L10.4602 10.6179L12.8574 8.30063C13.1056 8.06073 13.5013 8.06743 13.7412 8.31561Z" fill="#304254"/>
    <path fillRule="evenodd" clipRule="evenodd" d="M17.6668 10.2942C18.012 10.2942 18.2918 10.574 18.2918 10.9192V13.0025C18.2918 14.7779 16.8317 16.1275 15.1668 16.1275H5.8335C5.48832 16.1275 5.2085 15.8477 5.2085 15.5025C5.2085 15.1574 5.48832 14.8775 5.8335 14.8775H15.1668C16.1686 14.8775 17.0418 14.0605 17.0418 13.0025V10.9192C17.0418 10.574 17.3217 10.2942 17.6668 10.2942Z" fill="#304254"/>
    <path fillRule="evenodd" clipRule="evenodd" d="M3.3335 10.2942C3.67868 10.2942 3.9585 10.574 3.9585 10.9192V13.0025C3.9585 14.0605 4.83172 14.8775 5.8335 14.8775H15.1668C15.512 14.8775 15.7918 15.1574 15.7918 15.5025C15.7918 15.8477 15.512 16.1275 15.1668 16.1275H5.8335C4.16861 16.1275 2.7085 14.7779 2.7085 13.0025V10.9192C2.7085 10.574 2.98832 10.2942 3.3335 10.2942Z" fill="#304254"/>
</svg>