<svg width="18" height="18" viewBox="0 0 18 18" fill="none"
    xmlns="http://www.w3.org/2000/svg">
    <g id="copy-a">
        <path id="Vector" fillRule="evenodd" clipRule="evenodd" d="M3.4502 4.34998C3.4502 3.38563 4.17335 2.66248 5.1377 2.66248H9.86269C10.8149 2.66248 11.5502 3.44837 11.5502 4.34998V10.65C11.5502 11.6143 10.827 12.3375 9.86269 12.3375H5.1377C4.17335 12.3375 3.4502 11.6143 3.4502 10.65V4.34998ZM5.1377 1.53748C3.55203 1.53748 2.3252 2.76431 2.3252 4.34998V10.65C2.3252 12.2356 3.55203 13.4625 5.1377 13.4625H5.3252V13.65C5.3252 15.2356 6.55203 16.4625 8.13769 16.4625H12.8627C14.4483 16.4625 15.6752 15.2356 15.6752 13.65V7.34998C15.6752 5.76431 14.4483 4.53748 12.8627 4.53748H12.6752V4.34998C12.6752 2.85157 11.4605 1.53748 9.86269 1.53748H5.1377ZM12.6752 5.66248V10.65C12.6752 12.2356 11.4483 13.4625 9.86269 13.4625H6.4502V13.65C6.4502 14.6143 7.17335 15.3375 8.13769 15.3375H12.8627C13.827 15.3375 14.5502 14.6143 14.5502 13.65V7.34998C14.5502 6.38563 13.827 5.66248 12.8627 5.66248H12.6752Z" fill="#91A4B7"/>
    </g>
</svg>
