<svg width="41" height="40" viewBox="0 0 41 40" fill="none"
    xmlns="http://www.w3.org/2000/svg">
    <g clipPath="url(#clip0_5_201)">
        <path d="M7.547 4.6875C7.547 3.82599 8.24799 3.125 9.1095 3.125H22.7728V8.68042C22.7728 11.2653 24.8755 13.3679 27.4603 13.3679H33.0072V22.6562H36.1322V11.1606L25.0281 0H9.1095C6.52466 0 4.422 2.10266 4.422 4.6875V22.6562H7.547V4.6875ZM25.8978 8.68042V5.30487L30.8109 10.2429H27.4603C26.5985 10.2429 25.8978 9.54224 25.8978 8.68042ZM40.4376 31.3281V32.8906C40.4376 36.8011 37.2574 39.9844 33.3426 40H33.3139C29.3991 39.9844 26.2189 36.8011 26.2189 32.8906C26.2189 28.9703 29.4064 25.7812 33.324 25.7812C34.3292 25.7812 35.3021 25.9879 36.2152 26.3953L34.942 29.249C34.4321 29.0216 33.8876 28.9062 33.324 28.9062C31.1295 28.9062 29.3439 30.6937 29.3439 32.8906C29.3439 35.0827 31.1301 36.8671 33.3282 36.875C34.9707 36.8692 36.3831 35.8713 36.9922 34.4531H33.6407V31.3281H40.4376ZM12.2345 35.6641C12.2345 38.0548 10.2893 40 7.89856 40H0.906372V36.875H7.89856C8.56628 36.875 9.1095 36.3318 9.1095 35.6641C9.1095 34.9963 8.56628 34.4531 7.89856 34.4531H5.24231C2.85156 34.4531 0.906372 32.5079 0.906372 30.1172C0.906372 27.7264 2.85156 25.7812 5.24231 25.7812H10.5939V28.9062H5.24231C4.57458 28.9062 4.03137 29.4495 4.03137 30.1172C4.03137 30.7849 4.57458 31.3281 5.24231 31.3281H7.89856C10.2893 31.3281 12.2345 33.2733 12.2345 35.6641ZM22.0486 25.7812H25.3546L20.4489 40H18.0704L13.0939 25.7812H16.4047L19.2471 33.9023L22.0486 25.7812Z" fill="#1C2A3A"/>
    </g>
    <defs>
        <clipPath id="clip0_5_201">
            <rect width="40" height="40" fill="white" transform="translate(0.671997)"/>
        </clipPath>
    </defs>
</svg>
