<svg width="412" height="420" viewBox="0 0 412 420" fill="none" xmlns="http://www.w3.org/2000/svg">
<path d="M241.051 318.795C252.208 303.543 292.354 301.138 309.251 299.415C322.884 292.704 347.818 257.929 352.051 252.976C350.796 253.156 349.755 253.299 348.966 253.407C327.225 260.656 335.548 258.431 312.516 263.204C305.879 273.002 302.65 285.598 302.65 285.598C302.65 285.598 259.599 292.345 241.051 318.795Z" fill="#EC6F66"/>
<path d="M357.863 226.239C358.114 222.04 357.863 209.946 357.863 209.946C357.361 205.317 357.612 198.139 356.572 190.674C351.836 156.832 359.765 149.187 361.702 147.429C367.442 142.333 375.514 145.204 377.451 153.566C379.963 164.44 382.797 189.203 382.797 206.86C380.357 227.962 376.375 246.947 375.729 249.639C370.491 250.392 354.024 252.725 348.966 253.443C348.966 253.443 357.612 230.438 357.863 226.239Z" fill="url(#paint0_linear_219_1274)"/>
<path d="M314.058 237.437C314.058 237.437 310.184 254.806 312.516 263.204C329.7 259.651 329.413 259.974 337.234 257.39L336.804 231.874C336.804 231.874 325.001 201.943 320.66 192.827C318.651 188.593 314.094 186.08 309.789 187.911C307.063 189.059 304.659 191.787 304.157 197.672C303.152 209.372 311.045 229.613 314.058 237.437Z" fill="url(#paint1_linear_219_1274)"/>
<path d="M335.907 160.456C342.652 159.631 344.123 167.849 346.024 175.852C347.925 183.855 357.863 209.982 357.863 209.982C357.863 209.982 358.114 222.041 357.863 226.275C357.612 230.51 348.966 253.766 348.966 253.766L331.243 259.4C330.813 246.337 336.732 230.08 336.732 230.08C332.319 219.098 330.633 195.088 328.086 182.205C325.575 169.285 329.162 161.282 335.907 160.456Z" fill="url(#paint2_linear_219_1274)"/>
<path d="M170.949 318.795C159.792 303.543 119.646 301.138 102.749 299.415C89.0801 292.704 64.1463 257.929 59.9129 253.012C61.1686 253.191 62.209 253.335 62.9983 253.443C84.7391 260.692 76.4159 258.467 99.4483 263.24C106.085 273.038 109.314 285.634 109.314 285.634C109.314 285.634 152.401 292.345 170.949 318.795Z" fill="#EC6F66"/>
<path d="M54.1369 226.239C53.8858 222.04 54.1369 209.946 54.1369 209.946C54.6391 205.317 54.388 198.139 55.4284 190.674C60.1641 156.832 52.2355 149.187 50.2982 147.429C44.558 142.333 36.4859 145.204 34.5486 153.566C32.0373 164.44 29.2031 189.203 29.2031 206.86C31.6426 227.962 35.6249 246.947 36.2706 249.639C41.5085 250.392 57.9756 252.725 63.0341 253.443C62.9983 253.443 54.388 230.438 54.1369 226.239Z" fill="url(#paint3_linear_219_1274)"/>
<path d="M97.9056 237.437C97.9056 237.437 101.78 254.806 99.4483 263.204C82.2637 259.651 82.5507 259.974 74.7297 257.39L75.1602 231.874C75.1602 231.874 86.9634 201.943 91.3044 192.827C93.3135 188.593 97.8697 186.08 102.175 187.911C104.901 189.059 107.305 191.787 107.807 197.672C108.848 209.372 100.955 229.613 97.9056 237.437Z" fill="url(#paint4_linear_219_1274)"/>
<path d="M76.093 160.456C69.3483 159.631 67.8774 167.849 65.976 175.852C64.0745 183.855 54.1369 209.982 54.1369 209.982C54.1369 209.982 53.8858 222.041 54.1369 226.275C54.388 230.51 63.0341 253.479 63.0341 253.479L80.721 259.472C81.1515 246.409 75.232 230.08 75.232 230.08C79.6447 219.098 81.3309 195.088 83.8781 182.205C86.4253 169.285 82.8377 161.282 76.093 160.456Z" fill="url(#paint5_linear_219_1274)"/>
<path d="M186.878 408.516C185.945 386.409 183.111 330.638 168.402 315.888C155.666 303.148 125.315 296.473 107.915 294.714C79.3577 280.718 65.5096 259.544 59.9129 253.012C52.4148 244.219 43.8405 235.929 34.2975 236.001C32.5754 222.579 30.1358 201.656 28.1627 183.532C26.9788 172.658 20.7722 162.215 10.5475 163.22C3.47997 163.937 0.717521 176.642 0.215257 190.746C5.58794e-07 196.668 -0.645768 248.167 2.51132 255.345C5.66841 262.522 31.0686 324.932 32.8624 327.731C43.41 344.455 85.0261 359.887 102.856 374.494L101.96 408.516H186.878Z" fill="url(#paint6_linear_219_1274)"/>
<path opacity="0.85" d="M106.803 353.069C106.803 353.069 100.13 358.559 79.2501 336.847C58.3703 315.135 53.9575 316.534 42.9795 306.665C32.0373 296.796 34.9791 294.248 28.0192 282.225C21.9202 271.71 10.1529 258.431 17.3999 248.06C14.9603 257.678 24.5751 268.947 29.8847 278.134C34.5486 286.209 34.7638 290.013 37.7416 294.642C46.1007 280.826 62.3884 278.313 62.3884 278.313C62.3884 278.313 47.4639 288.075 39.5354 297.083C40.8269 298.698 45.3831 303.004 45.5984 303.22C51.1233 300.385 63.644 292.92 65.5813 282.44C65.5813 282.44 69.0613 297.837 48.1456 305.337C56.9711 312.407 62.4601 313.304 81.1515 332.756C95.8607 348.044 103.538 352.028 106.803 353.069Z" fill="#EC6F66"/>
<path d="M44.8091 256.888L32.683 265.932C30.7816 267.331 28.1268 267.044 26.5841 265.286L22.7454 260.872C17.9739 255.381 18.8708 246.947 24.7186 242.569C30.5663 238.19 38.8896 239.733 42.8001 245.906L45.9213 250.859C47.1769 252.833 46.6747 255.452 44.8091 256.888Z" fill="#F5B49C"/>
<path d="M191.65 373.022V408.516H93.3494V373.022C93.3494 370.402 115.341 368.249 142.499 368.249C169.658 368.249 191.65 370.366 191.65 373.022Z" fill="#CCE1EB"/>
<path d="M198.287 383.861V420H86.7482V383.861C86.7482 380.882 111.718 378.441 142.499 378.441C173.317 378.441 198.287 380.882 198.287 383.861Z" fill="#0D1829"/>
<path d="M225.122 408.516C226.055 386.409 228.889 330.638 243.598 315.888C256.334 303.148 286.685 296.473 304.085 294.714C332.642 280.718 346.49 259.544 352.087 253.012C359.585 244.219 368.159 235.929 377.702 236.001C379.425 222.579 381.864 201.656 383.837 183.532C385.021 172.658 391.228 162.215 401.452 163.22C408.52 163.937 411.282 176.642 411.785 190.746C412 196.703 412.646 248.239 409.453 255.381C406.296 262.558 380.895 324.968 379.102 327.767C368.554 344.491 326.938 359.923 309.108 374.53L310.004 408.552H225.122V408.516Z" fill="url(#paint7_linear_219_1274)"/>
<path opacity="0.85" d="M305.197 353.069C305.197 353.069 311.87 358.559 332.75 336.847C353.63 315.135 358.042 316.534 369.021 306.665C379.963 296.796 377.021 294.248 383.981 282.225C390.08 271.71 401.847 258.431 394.6 248.06C397.04 257.678 387.425 268.947 382.115 278.134C377.451 286.209 377.236 290.013 374.258 294.642C365.899 280.826 349.612 278.313 349.612 278.313C349.612 278.313 364.536 288.075 372.465 297.083C371.173 298.698 366.617 303.004 366.402 303.22C360.877 300.385 348.356 292.92 346.419 282.44C346.419 282.44 342.939 297.837 363.854 305.337C355.029 312.407 349.54 313.304 330.848 332.756C316.139 348.044 308.462 352.028 305.197 353.069Z" fill="#EC6F66"/>
<path d="M367.191 256.888L379.317 265.932C381.218 267.331 383.873 267.044 385.416 265.286L389.255 260.872C394.026 255.381 393.129 246.947 387.281 242.569C381.434 238.19 373.11 239.733 369.2 245.906L366.079 250.859C364.823 252.833 365.325 255.452 367.191 256.888Z" fill="#F5B49C"/>
<path d="M220.315 373.022V408.516H318.615V373.022C318.615 370.402 296.623 368.249 269.465 368.249C242.342 368.249 220.315 370.366 220.315 373.022Z" fill="#CCE1EB"/>
<path d="M213.713 383.861V420H325.252V383.861C325.252 380.882 300.282 378.441 269.5 378.441C238.683 378.441 213.713 380.882 213.713 383.861Z" fill="#0D1829"/>
<path d="M206 38.5798C206 38.5798 230.611 0 279.223 0C322.561 0 352.446 39.5847 352.446 85.7011C352.446 139.067 311.727 202.23 206 257.103C100.273 202.23 59.5542 139.067 59.5542 85.7011C59.5542 39.5847 89.4389 0 132.777 0C181.389 0 206 38.5798 206 38.5798Z" fill="#EB586F"/>
<defs>
<linearGradient id="paint0_linear_219_1274" x1="396.627" y1="190.639" x2="357.768" y2="200.843" gradientUnits="userSpaceOnUse">
<stop stop-color="#F3A183"/>
<stop offset="1" stop-color="#EC6F66"/>
</linearGradient>
<linearGradient id="paint1_linear_219_1274" x1="350.201" y1="215.499" x2="311.163" y2="226.061" gradientUnits="userSpaceOnUse">
<stop stop-color="#F3A183"/>
<stop offset="1" stop-color="#EC6F66"/>
</linearGradient>
<linearGradient id="paint2_linear_219_1274" x1="383.714" y1="199.043" x2="332.32" y2="210.142" gradientUnits="userSpaceOnUse">
<stop stop-color="#F3A183"/>
<stop offset="1" stop-color="#EC6F66"/>
</linearGradient>
<linearGradient id="paint3_linear_219_1274" x1="15.3689" y1="190.639" x2="54.2277" y2="200.843" gradientUnits="userSpaceOnUse">
<stop stop-color="#F3A183"/>
<stop offset="1" stop-color="#EC6F66"/>
</linearGradient>
<linearGradient id="paint4_linear_219_1274" x1="61.795" y1="215.499" x2="100.833" y2="226.061" gradientUnits="userSpaceOnUse">
<stop stop-color="#F3A183"/>
<stop offset="1" stop-color="#EC6F66"/>
</linearGradient>
<linearGradient id="paint5_linear_219_1274" x1="28.2653" y1="199.079" x2="79.6759" y2="210.181" gradientUnits="userSpaceOnUse">
<stop stop-color="#F3A183"/>
<stop offset="1" stop-color="#EC6F66"/>
</linearGradient>
<linearGradient id="paint6_linear_219_1274" x1="-82.7559" y1="219.569" x2="197.337" y2="350.974" gradientUnits="userSpaceOnUse">
<stop stop-color="#F3A183"/>
<stop offset="1" stop-color="#EC6F66"/>
</linearGradient>
<linearGradient id="paint7_linear_219_1274" x1="494.752" y1="219.569" x2="214.659" y2="350.974" gradientUnits="userSpaceOnUse">
<stop stop-color="#F3A183"/>
<stop offset="1" stop-color="#EC6F66"/>
</linearGradient>
</defs>
</svg>
