<svg width="48" height="48" viewBox="0 0 48 48" fill="none" xmlns="http://www.w3.org/2000/svg">
<rect width="48" height="48" rx="12" fill="#3E64FF"/>
<path d="M29.0559 17.728C30.0239 17.728 30.8439 17.924 31.5159 18.316C32.1879 18.708 32.6919 19.264 33.0279 19.984C33.3719 20.696 33.5439 21.528 33.5439 22.48V31H30.2799V23.344C30.2799 22.496 30.0759 21.832 29.6679 21.352C29.2679 20.872 28.7119 20.632 27.9999 20.632C27.5519 20.632 27.1559 20.74 26.8119 20.956C26.4759 21.164 26.2119 21.46 26.0199 21.844C25.8359 22.22 25.7439 22.656 25.7439 23.152V31H22.4799V23.344C22.4799 22.496 22.2759 21.832 21.8679 21.352C21.4679 20.872 20.9119 20.632 20.1999 20.632C19.7519 20.632 19.3559 20.74 19.0119 20.956C18.6759 21.164 18.4119 21.46 18.2199 21.844C18.0359 22.22 17.9439 22.656 17.9439 23.152V31H14.6559V18.04H17.5359V19.456C17.9759 18.912 18.5239 18.488 19.1799 18.184C19.8439 17.88 20.5599 17.728 21.3279 17.728C22.2239 17.728 22.9879 17.908 23.6199 18.268C24.2519 18.62 24.7439 19.112 25.0959 19.744C25.5199 19.112 26.0799 18.62 26.7759 18.268C27.4719 17.908 28.2319 17.728 29.0559 17.728Z" fill="white"/>
</svg>
